<svg width="10" height="13" viewBox="0 0 10 13" fill="none" xmlns="http://www.w3.org/2000/svg">
<path d="M0.00260345 4.76078C0.00260345 2.13049 2.2416 0 5.0013 0C7.761 0 10 2.13049 10 4.76078C10 7.77223 6.87061 11.3819 5.56366 12.7577C5.25644 13.0808 4.74356 13.0808 4.43634 12.7577C3.12939 11.3819 0 7.77223 0 4.76078H0.00260345ZM5.0013 6.46214C5.92033 6.46214 6.66753 5.73767 6.66753 4.8466C6.66753 3.95553 5.92033 3.23107 5.0013 3.23107C4.08227 3.23107 3.33507 3.95553 3.33507 4.8466C3.33507 5.73767 4.08227 6.46214 5.0013 6.46214Z" fill="white"/>
</svg>
