<svg width="12" height="12" viewBox="0 0 12 12" fill="none" xmlns="http://www.w3.org/2000/svg">
<path d="M3.75309 0.586265C3.56792 0.143264 3.08508 -0.0911277 2.62568 0.0331L2.49677 0.0682588C0.982623 0.480789 -0.311197 1.94808 0.0661671 3.73415C0.935746 7.83601 4.16327 11.0636 8.26505 11.9332C10.0534 12.3129 11.5184 11.0167 11.9309 9.50254L11.966 9.37362C12.0926 8.91187 11.8559 8.42902 11.4152 8.2462L9.13463 7.29691C8.74789 7.13518 8.30021 7.24769 8.03301 7.57349L7.12827 8.67982C5.48053 7.86179 4.15389 6.49294 3.39213 4.81235L4.42812 3.96854C4.75392 3.70368 4.86408 3.25599 4.7047 2.8669L3.75309 0.586265Z" fill="white"/>
</svg>
